<svg width="146" height="197" viewBox="0 0 146 197" fill="none" xmlns="http://www.w3.org/2000/svg">
<path d="M138.627 183.071H142.66V178.584H138.627C137.527 178.584 136.743 178.777 136.285 179.162C135.827 179.548 135.596 180.096 135.596 180.815C135.596 182.318 136.606 183.071 138.627 183.071ZM145.872 193.244H142.665V185.854H141.085L135.622 193.244H131.914L137.351 185.803C135.93 185.653 134.744 185.173 133.793 184.36C132.843 183.551 132.363 182.369 132.363 180.815C132.363 179.895 132.539 179.09 132.89 178.396C133.241 177.703 133.712 177.167 134.307 176.791C134.898 176.414 135.532 176.14 136.2 175.964C136.867 175.789 137.578 175.703 138.332 175.703H145.876V193.244H145.872ZM116.877 193.244H113.769V175.703H116.976V187.781H117.001L125.924 175.703H129.007V193.244H125.8V181.14H125.774L116.877 193.244ZM94.8015 193.244H91.5947V175.703H94.8015L100.564 185.101H100.59L106.379 175.703H109.56V193.244H106.353V181.616H106.327L100.89 190.564H100.265L94.8272 181.616H94.8015V193.244ZM88.011 193.244H75.4833V175.703H87.8868V178.584H78.6901V182.969H87.4373V185.85H78.6901V190.358H88.011V193.24V193.244ZM60.3438 190.388H67.1343V178.636H61.3457V186.154C61.3457 187.991 61.0117 189.403 60.3438 190.388ZM58.6655 196.904H55.4586V190.388H56.7345C57.6721 189.271 58.1388 187.901 58.1388 186.278V175.703H70.3412V190.388H72.422V196.904H69.2151V193.248H58.6655V196.904ZM45.1358 180.139L42.2287 186.753H48.1158L45.1829 180.139H45.1316H45.1358ZM39.4971 193.244H35.862L43.6544 175.703H46.6857L54.4524 193.244H50.8174L49.2375 189.609H41.0941L39.4928 193.244H39.4971ZM24.212 193.244H21.0052V175.703H24.212V183.02L30.9554 175.703H35.1642L28.1724 183.32L35.4382 193.244H31.5035L25.8647 185.627L24.212 187.481V193.244ZM9.50498 180.139L6.59783 186.753H12.4849L9.55208 180.139H9.5007H9.50498ZM3.86621 193.244H0.231201L8.02358 175.703H11.0549L18.8216 193.244H15.1866L13.6067 189.609H5.46322L3.86193 193.244H3.86621Z" fill="#003163"/>
<path d="M144.968 163.553L145.803 165.111C144.891 166.023 143.696 166.738 142.215 167.256C140.734 167.774 139.184 168.035 137.561 168.035C133.613 168.035 130.398 166.794 127.915 164.315C125.457 161.857 124.228 158.556 124.228 154.403C124.228 150.477 125.419 147.241 127.799 144.68C130.18 142.073 133.331 140.771 137.253 140.771C140.618 140.771 143.303 141.606 145.302 143.276L144.313 144.835C142.515 143.443 140.173 142.745 137.287 142.745C134.046 142.745 131.426 143.846 129.426 146.05C127.427 148.204 126.425 150.987 126.425 154.403C126.425 157.82 127.465 160.68 129.537 162.833C131.614 164.987 134.337 166.062 137.702 166.062C140.485 166.062 142.904 165.227 144.955 163.557M119.626 167.697H104.55V141.114H119.249V143.088H106.64V153.226H118.106V155.2H106.64V165.719H119.626V167.693V167.697ZM96.1202 167.697H94.0308V155.127H77.4356V167.697H75.3462V141.114H77.4356V153.153H94.0308V141.114H96.1202V167.697ZM59.4361 168.04C57.7149 168.04 56.0708 167.658 54.4994 166.901C52.9024 166.117 51.7507 165.192 51.0443 164.126L52.2217 162.722C53.0566 163.711 54.1441 164.512 55.4885 165.132C56.8286 165.753 58.0959 166.062 59.2862 166.062C61.3884 166.062 63.0711 165.522 64.3384 164.447C65.6057 163.373 66.2394 161.909 66.2394 160.059C66.2394 158.539 65.7342 157.332 64.7195 156.433C63.7047 155.534 62.3261 155.084 60.5792 155.084H57.2739V153.11H60.348C61.6153 153.11 62.7414 152.605 63.7304 151.591C64.7195 150.576 65.2118 149.313 65.2118 147.793C65.2118 146.2 64.7066 144.959 63.6919 144.072C62.6772 143.186 61.3242 142.745 59.6287 142.745C57.0213 142.745 54.8206 143.76 53.0223 145.785L51.8064 144.458C52.7183 143.319 53.8743 142.42 55.283 141.76C56.6873 141.101 58.1901 140.771 59.7829 140.771C62.0863 140.771 63.9145 141.384 65.2718 142.612C66.6247 143.841 67.3055 145.52 67.3055 147.643C67.3055 148.936 66.9458 150.156 66.2223 151.308C65.503 152.46 64.5182 153.329 63.2809 153.911V154.027C64.8265 154.254 66.051 154.943 66.963 156.095C67.8749 157.246 68.3288 158.633 68.3288 160.252C68.3288 162.658 67.481 164.554 65.7855 165.95C64.0901 167.342 61.975 168.04 59.4446 168.04H59.4361ZM43.0678 144.535L25.1796 167.697H23.3171V141.114H25.4065V164.276L43.2904 141.114H45.1529V167.697H43.0635V144.535H43.0678ZM6.64913 153.838C5.03071 153.838 3.55786 153.915 2.24344 154.065V165.723C4.74813 165.8 6.14391 165.839 6.4222 165.839C8.97828 165.839 10.9178 165.308 12.2322 164.242C13.5509 163.18 14.206 161.647 14.206 159.648C14.206 157.798 13.5595 156.369 12.2708 155.358C10.9777 154.343 9.10672 153.838 6.64913 153.838ZM0.154053 167.697V141.114H14.814V143.088H2.24344V152.087C3.78907 151.937 5.28332 151.86 6.7262 151.86C9.78749 151.86 12.1509 152.532 13.8078 153.872C15.4648 155.213 16.2954 157.101 16.2954 159.532C16.2954 162.191 15.4091 164.233 13.6366 165.668C11.864 167.098 9.35933 167.813 6.11822 167.813C5.69006 167.813 4.58543 167.787 2.81288 167.736C1.9266 167.71 1.04033 167.697 0.154053 167.697Z" fill="#003163"/>
<path fill-rule="evenodd" clip-rule="evenodd" d="M72.97 0.0341797L109.389 63.1073L145.859 126.275H115.241L85.5662 74.5342C76.4851 58.7018 58.233 51.2051 41.2524 54.9641L72.97 0.0341797Z" fill="#003163"/>
<path fill-rule="evenodd" clip-rule="evenodd" d="M0.158447 126.279H30.7756C41.3895 107.775 63.8675 69.5212 63.8461 69.5469C54.9577 65.0472 44.5407 63.8441 34.6889 66.49L0.162726 126.279H0.158447Z" fill="#003163"/>
<path fill-rule="evenodd" clip-rule="evenodd" d="M43.2991 126.254H103.185L84.2647 94.1133H61.2558L43.2991 126.254Z" fill="#003163"/>
</svg>
