<svg width="115" height="51" viewBox="0 0 115 51" fill="none" xmlns="http://www.w3.org/2000/svg">
<rect x="0.748535" y="0.0107422" width="114.25" height="50" rx="25" fill="#F5F5F5"/>
<path d="M41.2585 24.7741C41.9285 24.9541 42.4385 25.2641 42.7885 25.7041C43.1385 26.1341 43.3135 26.6741 43.3135 27.3241C43.3135 28.2441 42.9735 28.9591 42.2935 29.4691C41.6135 29.9791 40.6285 30.2341 39.3385 30.2341H34.3585V19.7341H39.0535C40.2335 19.7341 41.1535 19.9691 41.8135 20.4391C42.4735 20.9091 42.8035 21.5741 42.8035 22.4341C42.8035 22.9841 42.6685 23.4591 42.3985 23.8591C42.1385 24.2591 41.7585 24.5641 41.2585 24.7741ZM36.2785 24.2191H38.8885C39.5185 24.2191 39.9985 24.0941 40.3285 23.8441C40.6585 23.5941 40.8235 23.2241 40.8235 22.7341C40.8235 22.2441 40.6585 21.8741 40.3285 21.6241C39.9985 21.3641 39.5185 21.2341 38.8885 21.2341H36.2785V24.2191ZM39.2785 28.7341C40.6585 28.7341 41.3485 28.2141 41.3485 27.1741C41.3485 26.1541 40.6585 25.6441 39.2785 25.6441H36.2785V28.7341H39.2785ZM48.8949 30.3391C48.0849 30.3391 47.3549 30.1641 46.7049 29.8141C46.0549 29.4641 45.5449 28.9791 45.1749 28.3591C44.8149 27.7291 44.6349 27.0191 44.6349 26.2291C44.6349 25.4391 44.8149 24.7341 45.1749 24.1141C45.5449 23.4941 46.0549 23.0091 46.7049 22.6591C47.3549 22.3091 48.0849 22.1341 48.8949 22.1341C49.7149 22.1341 50.4499 22.3091 51.0999 22.6591C51.7499 23.0091 52.2549 23.4941 52.6149 24.1141C52.9849 24.7341 53.1699 25.4391 53.1699 26.2291C53.1699 27.0191 52.9849 27.7291 52.6149 28.3591C52.2549 28.9791 51.7499 29.4641 51.0999 29.8141C50.4499 30.1641 49.7149 30.3391 48.8949 30.3391ZM48.8949 28.7341C49.5849 28.7341 50.1549 28.5041 50.6049 28.0441C51.0549 27.5841 51.2799 26.9791 51.2799 26.2291C51.2799 25.4791 51.0549 24.8741 50.6049 24.4141C50.1549 23.9541 49.5849 23.7241 48.8949 23.7241C48.2049 23.7241 47.6349 23.9541 47.1849 24.4141C46.7449 24.8741 46.5249 25.4791 46.5249 26.2291C46.5249 26.9791 46.7449 27.5841 47.1849 28.0441C47.6349 28.5041 48.2049 28.7341 48.8949 28.7341ZM55.0222 22.2241H56.8972V27.5041L61.3222 22.2241H63.0322V30.2341H61.1572V24.9541L56.7472 30.2341H55.0222V22.2241ZM58.9072 21.2791C58.0972 21.2791 57.4772 21.0941 57.0472 20.7241C56.6272 20.3441 56.4122 19.7941 56.4022 19.0741H57.6472C57.6572 19.4341 57.7672 19.7191 57.9772 19.9291C58.1972 20.1391 58.5022 20.2441 58.8922 20.2441C59.2722 20.2441 59.5722 20.1391 59.7922 19.9291C60.0222 19.7191 60.1422 19.4341 60.1522 19.0741H61.4272C61.4172 19.7941 61.1972 20.3441 60.7672 20.7241C60.3372 21.0941 59.7172 21.2791 58.9072 21.2791ZM71.8994 23.8141H69.0944V30.2341H67.2194V23.8141H64.3994V22.2241H71.8994V23.8141ZM73.2595 22.2241H75.1345V27.5041L79.5595 22.2241H81.2695V30.2341H79.3945V24.9541L74.9845 30.2341H73.2595V22.2241Z" fill="#252525"/>
</svg>
