<svg width="51" height="51" viewBox="0 0 51 51" fill="none" xmlns="http://www.w3.org/2000/svg">
<rect x="0.748535" y="0.0107422" width="50" height="50" rx="25" fill="#F5F5F5"/>
<path d="M25.7486 34.6899C25.409 34.6941 25.072 34.6306 24.7572 34.5031C24.4425 34.3756 24.1562 34.1867 23.9153 33.9474L17.5444 27.5308C16.7866 26.79 16.2356 25.864 15.9462 24.8445C15.6567 23.825 15.6389 22.7476 15.8944 21.7191C16.1655 20.7255 16.6871 19.8181 17.4095 19.084C18.1318 18.3499 19.0306 17.8136 20.0197 17.5265C21.0088 17.2395 22.0551 17.2112 23.0582 17.4446C24.0613 17.6779 24.9877 18.165 25.7486 18.8591C26.5095 18.165 27.4358 17.6779 28.439 17.4446C29.4421 17.2112 30.4884 17.2395 31.4775 17.5265C32.4666 17.8136 33.3654 18.3499 34.0877 19.084C34.8101 19.8181 35.3317 20.7255 35.6028 21.7191C35.8635 22.7567 35.8456 23.8448 35.5511 24.8733C35.2565 25.9018 34.6957 26.8343 33.9253 27.5766L27.5086 33.9933C27.0326 34.442 26.4028 34.6914 25.7486 34.6899ZM21.6878 18.6666C20.6961 18.6666 19.7311 18.9883 18.9378 19.5833C18.0989 20.1987 17.4944 21.0812 17.2236 22.0858C17.0261 22.8886 17.0442 23.7293 17.276 24.5228C17.5077 25.3164 17.945 26.0347 18.5436 26.6049L24.9603 33.0216C25.1819 33.2422 25.4818 33.366 25.7944 33.366C26.1071 33.366 26.407 33.2422 26.6286 33.0216L33.0453 26.6508C33.6364 26.0652 34.0615 25.3332 34.2773 24.5296C34.4931 23.726 34.4918 22.8796 34.2736 22.0766C34.0033 21.0767 33.4023 20.1979 32.5686 19.5833C31.6213 18.8907 30.4485 18.579 29.2824 18.7097C28.1162 18.8404 27.0416 19.404 26.2711 20.2891C26.2029 20.3584 26.1215 20.4134 26.0318 20.451C25.9421 20.4885 25.8458 20.5079 25.7486 20.5079C25.6513 20.5079 25.5551 20.4885 25.4654 20.451C25.3757 20.4134 25.2943 20.3584 25.2261 20.2891C24.7879 19.7799 24.2449 19.3713 23.6342 19.0912C23.0235 18.8112 22.3596 18.6664 21.6878 18.6666Z" fill="#959595"/>
</svg>
