<svg width="51" height="51" viewBox="0 0 51 51" fill="none" xmlns="http://www.w3.org/2000/svg">
<rect x="0.748535" y="0.0107422" width="50" height="50" rx="25" fill="#F5F5F5"/>
<g clip-path="url(#clip0_43_1080)">
<path d="M34.8295 33.0207L30.1821 28.4477C31.3991 27.1255 32.1469 25.3768 32.1469 23.4526C32.1463 19.3364 28.7559 16 24.5733 16C20.3907 16 17.0002 19.3364 17.0002 23.4526C17.0002 27.5688 20.3907 30.9052 24.5733 30.9052C26.3804 30.9052 28.0379 30.2802 29.3399 29.241L34.0052 33.832C34.2326 34.056 34.6016 34.056 34.8289 33.832C35.0568 33.6081 35.0568 33.2447 34.8295 33.0207ZM24.5733 29.7586C21.0343 29.7586 18.1655 26.9353 18.1655 23.4526C18.1655 19.9699 21.0343 17.1466 24.5733 17.1466C28.1122 17.1466 30.9811 19.9699 30.9811 23.4526C30.9811 26.9353 28.1122 29.7586 24.5733 29.7586Z" fill="#959595"/>
</g>
<defs>
<clipPath id="clip0_43_1080">
<rect width="18" height="18" fill="white" transform="translate(17 16)"/>
</clipPath>
</defs>
</svg>
